<?xml version="1.0" encoding="iso-8859-1"?>
<!-- Generator: Adobe Illustrator 19.0.0, SVG Export Plug-In . SVG Version: 6.00 Build 0)  -->
<svg version="1.1" id="Capa_1" xmlns="http://www.w3.org/2000/svg" xmlns:xlink="http://www.w3.org/1999/xlink" x="0px" y="0px"
	 viewBox="0 0 405.2 405.2" style="enable-background:new 0 0 405.2 405.2;" xml:space="preserve">
<g>
	<path style="fill:#FACA42;" d="M306.64,13.227c-14.64,0-26.64,9.44-26.64,20.96v64.56c0,11.6,11.92,20.96,26.64,20.96
		s26.64-9.44,26.64-20.96v-64.56C332.88,22.587,320.96,13.227,306.64,13.227z"/>
	<path style="fill:#FACA42;" d="M98.64,13.227C84,13.227,72,22.667,72,34.187v64.56c0,11.6,11.92,20.96,26.64,20.96
		s26.64-9.44,26.64-20.96v-64.56C125.68,22.587,113.68,13.227,98.64,13.227z"/>
</g>
<path style="fill:#88BBEA;" d="M370.64,73.947c-9.074-4.549-19.051-7.009-29.2-7.2h-8v32c0,11.6-11.92,20.96-26.64,20.96
	s-27.12-9.2-27.12-20.96v-32h-154v32c0,11.6-11.92,20.96-26.64,20.96s-26.64-9.2-26.64-20.96v-32h-8
	c-10.151,0.171-20.133,2.633-29.2,7.2c-12.24,6.56-26.88,20.8-26.88,51.76v35.92H397.2v-35.92
	C397.2,94.747,382.64,80.507,370.64,73.947z"/>
<path style="fill:#F2EDE7;" d="M8.08,161.547v171.6c0,30.96,14.56,45.6,26.56,51.76c9.908,5.024,20.893,7.551,32,7.36h271.44
	c11.107,0.191,22.092-2.336,32-7.36c12.24-6.56,26.88-20.8,26.88-51.76v-171.6L8.08,161.547z"/>
<g>
	<path style="fill:#0A1821;" d="M374.08,66.747c-10.312-5.164-21.668-7.9-33.2-8v-24.56c0-16-15.52-28.96-34.64-28.96
		s-34.64,12.96-34.64,28.96v24H133.68v-24c0-16-15.52-28.96-34.64-28.96S64.4,18.187,64.4,34.187v24.56
		c-11.56,0.082-22.946,2.819-33.28,8c-14.24,7.52-31.12,24-31.12,58.8v207.6c0,34.88,16.96,51.2,31.12,58.8
		c11.162,5.579,23.526,8.326,36,8h270.96c12.474,0.326,24.838-2.421,36-8c14.24-7.52,31.12-24,31.12-58.8v-207.44
		C405.2,90.747,388.32,74.747,374.08,66.747L374.08,66.747z M287.68,34.187c0-7.04,8.48-12.96,18.64-12.96s18.64,5.92,18.64,12.96
		v64.56c0,7.04-8.56,12.96-18.64,12.96s-18.64-5.76-18.64-12.96L287.68,34.187z M80.48,34.187c0-7.04,8.56-12.96,18.64-12.96
		s18.64,5.92,18.64,12.96v64.56c0,7.04-8.56,12.96-18.64,12.96s-18.72-5.76-18.72-12.96L80.48,34.187z M389.2,333.147
		c0,21.68-8,36.64-22.64,44.64c-8.817,4.467-18.599,6.692-28.48,6.48H67.2c-9.882,0.212-19.663-2.013-28.48-6.48
		c-15.04-8-22.64-23.04-22.64-44.64v-163.6H389.2L389.2,333.147z M389.2,153.547H16.08v-27.84c0-21.68,8-36.64,22.64-44.64
		c7.985-3.985,16.757-6.144,25.68-6.32v24c0,16,15.52,28.96,34.64,28.96s34.64-12.96,34.64-28.96v-24h138v24
		c0,16,15.52,28.96,34.64,28.96s34.56-12.96,34.56-28.96v-24c8.923,0.173,17.696,2.332,25.68,6.32c15.04,8,22.64,23.04,22.64,44.64
		V153.547z"/>
	<path style="fill:#0A1821;" d="M168.72,270.027c5.333,0,15.707-5.92,31.12-17.76v82.8c-0.292,3.97,0.906,7.906,3.36,11.04
		c2.261,2.501,5.511,3.876,8.88,3.76c8.32,0,12.48-6.107,12.48-18.32v-104c0.255-3.669-0.763-7.313-2.88-10.32
		c-1.87-2.513-4.872-3.924-8-3.76c-2.081-0.252-4.178,0.322-5.84,1.6c-1.013,1.12-3.227,4.027-6.64,8.72
		c-3.384,4.705-7.303,9.001-11.68,12.8c-5.348,4.405-11.269,8.065-17.6,10.88c-3.605,1.577-7.059,3.478-10.32,5.68
		c-2.011,1.661-3.086,4.199-2.88,6.8c-0.001,2.649,1.066,5.188,2.96,7.04C163.472,268.977,166.043,270.087,168.72,270.027
		L168.72,270.027z"/>
</g>
<g>
</g>
<g>
</g>
<g>
</g>
<g>
</g>
<g>
</g>
<g>
</g>
<g>
</g>
<g>
</g>
<g>
</g>
<g>
</g>
<g>
</g>
<g>
</g>
<g>
</g>
<g>
</g>
<g>
</g>
</svg>
